<svg width="55" height="55" viewBox="0 0 55 55" fill="none" xmlns="http://www.w3.org/2000/svg">
<g clip-path="url(#clip0_2_2088)">
<path d="M19.1305 46.1206C19.1305 46.1206 19.3214 45.9298 19.7031 45.5481C20.0848 45.1664 20.2756 44.4532 20.2756 43.4086C20.2756 42.3639 19.8939 41.4599 19.1305 40.6965C18.3671 39.9331 17.4631 39.5514 16.4185 39.5514C15.3738 39.5514 14.4698 39.9331 13.7064 40.6965C12.943 41.4599 12.5613 42.3639 12.5613 43.4086C12.5613 44.4532 12.943 45.3572 13.7064 46.1206C14.4698 46.884 15.3738 47.2657 16.4185 47.2657C17.4631 47.2657 18.3671 46.884 19.1305 46.1206ZM8.70417 27.98H20.2756V20.2657H15.5144C15.2533 20.2657 15.0323 20.3561 14.8515 20.5369L8.97538 26.413C8.79457 26.5938 8.70417 26.8148 8.70417 27.076V27.98ZM46.1305 46.1206C46.1305 46.1206 46.3214 45.9298 46.7031 45.5481C47.0848 45.1664 47.2756 44.4532 47.2756 43.4086C47.2756 42.3639 46.8939 41.4599 46.1305 40.6965C45.3671 39.9331 44.4631 39.5514 43.4185 39.5514C42.3738 39.5514 41.4698 39.9331 40.7064 40.6965C39.943 41.4599 39.5613 42.3639 39.5613 43.4086C39.5613 44.4532 39.943 45.3572 40.7064 46.1206C41.4698 46.884 42.3738 47.2657 43.4185 47.2657C44.4631 47.2657 45.3671 46.884 46.1305 46.1206ZM54.9899 10.6229V41.48C54.9899 41.7813 54.9497 42.0475 54.8694 42.2786C54.789 42.5096 54.6534 42.6954 54.4625 42.836C54.2717 42.9767 54.106 43.0922 53.9653 43.1826C53.8247 43.273 53.5887 43.3332 53.2572 43.3634C52.9257 43.3935 52.6997 43.4136 52.5792 43.4236C52.4586 43.4337 52.2025 43.4337 51.8108 43.4236C51.419 43.4136 51.193 43.4086 51.1327 43.4086C51.1327 45.538 50.3794 47.3561 48.8727 48.8628C47.366 50.3695 45.5479 51.1229 43.4185 51.1229C41.289 51.1229 39.4709 50.3695 37.9642 48.8628C36.4575 47.3561 35.7042 45.538 35.7042 43.4086H24.1327C24.1327 45.538 23.3794 47.3561 21.8727 48.8628C20.366 50.3695 18.5479 51.1229 16.4185 51.1229C14.289 51.1229 12.4709 50.3695 10.9642 48.8628C9.45752 47.3561 8.70417 45.538 8.70417 43.4086H6.7756C6.71533 43.4086 6.48933 43.4136 6.09759 43.4236C5.70585 43.4337 5.44971 43.4337 5.32917 43.4236C5.20864 43.4136 4.98263 43.3935 4.65116 43.3634C4.31968 43.3332 4.08364 43.273 3.94301 43.1826C3.80239 43.0922 3.63665 42.9767 3.4458 42.836C3.25495 42.6954 3.11935 42.5096 3.03899 42.2786C2.95864 42.0475 2.91846 41.7813 2.91846 41.48C2.91846 40.9577 3.10931 40.5057 3.491 40.124C3.8727 39.7423 4.32471 39.5514 4.84703 39.5514V29.9086C4.84703 29.7479 4.84201 29.3963 4.83196 28.8539C4.82192 28.3115 4.82192 27.9298 4.83196 27.7088C4.84201 27.4878 4.86712 27.1413 4.9073 26.6692C4.94747 26.1971 5.01277 25.8254 5.10317 25.5542C5.19357 25.283 5.33419 24.9767 5.52504 24.6351C5.71589 24.2936 5.94189 23.9923 6.20306 23.7311L12.1696 17.7646C12.5513 17.3829 13.0585 17.0615 13.6913 16.8003C14.3241 16.5392 14.9118 16.4086 15.4542 16.4086H20.2756V10.6229C20.2756 10.1005 20.4664 9.64853 20.8481 9.26683C21.2298 8.88514 21.6819 8.69429 22.2042 8.69429H53.0613C53.5836 8.69429 54.0356 8.88514 54.4173 9.26683C54.799 9.64853 54.9899 10.1005 54.9899 10.6229Z" fill="#2C2C2C"/>
</g>
<defs>
<clipPath id="clip0_2_2088">
<rect width="54.02" height="54" fill="white" transform="matrix(1 0 0 -1 0.97998 54.98)"/>
</clipPath>
</defs>
</svg>
