<svg width="52" height="55" viewBox="0 0 52 55" fill="none" xmlns="http://www.w3.org/2000/svg">
<g clip-path="url(#clip0_2_2076)">
<path d="M31.6804 35.5888C31.6804 35.5888 32.3408 34.9284 33.6617 33.6075C34.9826 32.2866 35.643 29.7679 35.643 26.0514C35.643 22.3349 34.3221 19.1558 31.6804 16.514C29.0386 13.8723 25.8595 12.5514 22.143 12.5514C18.4265 12.5514 15.2473 13.8723 12.6056 16.514C9.96387 19.1558 8.643 22.3349 8.643 26.0514C8.643 29.7679 9.96387 32.9471 12.6056 35.5888C15.2473 38.2305 18.4265 39.5514 22.143 39.5514C25.8595 39.5514 29.0386 38.2305 31.6804 35.5888ZM51.0716 51.1228C51.0716 52.1675 50.6899 53.0715 49.9265 53.8349C49.1631 54.5983 48.2591 54.98 47.2144 54.98C46.1296 54.98 45.2256 54.5983 44.5024 53.8349L34.1664 43.5291C30.5705 46.0202 26.5626 47.2657 22.143 47.2657C19.2702 47.2657 16.523 46.7082 13.9014 45.5933C11.2797 44.4783 9.01967 42.9716 7.12123 41.0732C5.2228 39.1747 3.7161 36.9147 2.60114 34.293C1.48619 31.6714 0.928711 28.9242 0.928711 26.0514C0.928711 23.1786 1.48619 20.4314 2.60114 17.8098C3.7161 15.1881 5.2228 12.9281 7.12123 11.0296C9.01967 9.13121 11.2797 7.62451 13.9014 6.50956C16.523 5.3946 19.2702 4.83712 22.143 4.83712C25.0158 4.83712 27.763 5.3946 30.3846 6.50956C33.0063 7.62451 35.2663 9.13121 37.1648 11.0296C39.0632 12.9281 40.5699 15.1881 41.6848 17.8098C42.7998 20.4314 43.3573 23.1786 43.3573 26.0514C43.3573 30.4711 42.1117 34.4789 39.6207 38.0748L49.9566 48.4108C50.6999 49.1541 51.0716 50.0581 51.0716 51.1228Z" fill="#2C2C2C"/>
</g>
<defs>
<clipPath id="clip0_2_2076">
<rect width="50.16" height="54" fill="white" transform="matrix(1 0 0 -1 0.919922 54.98)"/>
</clipPath>
</defs>
</svg>
