<svg width="48" height="55" viewBox="0 0 48 55" fill="none" xmlns="http://www.w3.org/2000/svg">
<g clip-path="url(#clip0_2_2100)">
<path d="M7.98891 42.836C7.98891 42.836 8.08433 42.7406 8.27518 42.5498C8.46603 42.3589 8.56145 42.0023 8.56145 41.48C8.56145 40.9577 8.3706 40.5057 7.98891 40.124C7.60721 39.7423 7.1552 39.5514 6.63288 39.5514C6.11056 39.5514 5.65855 39.7423 5.27686 40.124C4.89516 40.5057 4.70431 40.9577 4.70431 41.48C4.70431 42.0023 4.89516 42.4543 5.27686 42.836C5.65855 43.2177 6.11056 43.4086 6.63288 43.4086C7.1552 43.4086 7.60721 43.2177 7.98891 42.836ZM43.2757 24.1229C43.2757 23.0983 42.884 22.1993 42.1005 21.4259C41.317 20.6524 40.4231 20.2657 39.4186 20.2657H28.8115C28.8115 19.1005 29.2936 17.4984 30.2579 15.4594C31.2222 13.4203 31.7043 11.8081 31.7043 10.6229C31.7043 8.65411 31.3829 7.19764 30.74 6.25344C30.0972 5.30925 28.8115 4.83715 26.8829 4.83715C26.3606 5.35947 25.9789 6.21326 25.7378 7.39853C25.4967 8.5838 25.1904 9.8444 24.8187 11.1803C24.4471 12.5163 23.8494 13.6162 23.0257 14.48C22.5838 14.9421 21.8103 15.8561 20.7054 17.2222C20.6251 17.3226 20.394 17.624 20.0123 18.1262C19.6306 18.6284 19.3142 19.0403 19.0631 19.3617C18.812 19.6831 18.4655 20.11 18.0235 20.6424C17.5815 21.1748 17.1798 21.6167 16.8181 21.9683C16.4565 22.3198 16.0698 22.6764 15.658 23.038C15.2462 23.3996 14.8444 23.6709 14.4526 23.8517C14.0609 24.0325 13.7043 24.1229 13.3829 24.1229H12.4186V43.4086H13.3829C13.644 43.4086 13.9604 43.4387 14.3321 43.499C14.7038 43.5592 15.0352 43.6245 15.3265 43.6949C15.6178 43.7652 15.9995 43.8757 16.4716 44.0263C16.9437 44.177 17.2953 44.2925 17.5263 44.3729C17.7573 44.4532 18.1139 44.5788 18.5961 44.7495C19.0782 44.9203 19.3695 45.0258 19.4699 45.0659C23.7088 46.5325 27.144 47.2657 29.7757 47.2657H33.4219C37.2791 47.2657 39.2077 45.5883 39.2077 42.2334C39.2077 41.711 39.1574 41.1485 39.057 40.5459C39.6597 40.2244 40.1368 39.6971 40.4883 38.9638C40.8399 38.2306 41.0157 37.4923 41.0157 36.749C41.0157 36.0057 40.8349 35.3126 40.4733 34.6697C41.538 33.6653 42.0704 32.47 42.0704 31.0838C42.0704 30.5816 41.9699 30.0241 41.769 29.4114C41.5681 28.7986 41.317 28.3215 41.0157 27.98C41.6586 27.9599 42.1959 27.4878 42.6279 26.5637C43.0598 25.6396 43.2757 24.826 43.2757 24.1229ZM47.1329 24.0927C47.1329 25.8807 46.6407 27.518 45.6563 29.0046C45.8371 29.6675 45.9275 30.3606 45.9275 31.0838C45.9275 32.6307 45.5458 34.0771 44.7824 35.4231C44.8427 35.845 44.8728 36.2769 44.8728 36.7188C44.8728 38.7479 44.2702 40.5358 43.0648 42.0827C43.0849 44.8751 42.2311 47.0799 40.5034 48.6971C38.7757 50.3143 36.4956 51.1229 33.663 51.1229H32.5782H29.7757C27.8472 51.1229 25.9437 50.8969 24.0654 50.4449C22.187 49.9928 20.0123 49.3349 17.5414 48.4711C15.211 47.6675 13.8248 47.2657 13.3829 47.2657H4.70431C3.63958 47.2657 2.73054 46.889 1.97719 46.1357C1.22384 45.3824 0.847168 44.4733 0.847168 43.4086V24.1229C0.847168 23.0581 1.22384 22.1491 1.97719 21.3957C2.73054 20.6424 3.63958 20.2657 4.70431 20.2657H12.961C13.6842 19.7836 15.0603 18.2267 17.0894 15.595C18.2545 14.0883 19.3293 12.8026 20.3137 11.7378C20.7958 11.2356 21.1524 10.3768 21.3834 9.16137C21.6145 7.94596 21.9208 6.67532 22.3025 5.34943C22.6842 4.02353 23.307 2.93871 24.1708 2.09496C24.9543 1.35166 25.8583 0.980007 26.8829 0.980007C28.5704 0.980007 30.0871 1.30646 31.4331 1.95936C32.7791 2.61226 33.8036 3.63179 34.5068 5.01795C35.2099 6.40411 35.5615 8.27242 35.5615 10.6229C35.5615 12.4912 35.0793 14.4197 34.115 16.4086H39.4186C41.5079 16.4086 43.3159 17.172 44.8427 18.6988C46.3695 20.2255 47.1329 22.0235 47.1329 24.0927Z" fill="#2C2C2C"/>
</g>
<defs>
<clipPath id="clip0_2_2100">
<rect width="46.3" height="54" fill="white" transform="matrix(1 0 0 -1 0.839844 54.98)"/>
</clipPath>
</defs>
</svg>
